<?xml version="1.0" encoding="UTF-8" standalone="no"?>
<!-- Created with Inkscape (http://www.inkscape.org/) -->

<svg
   width="10.700"
   height="6.700"
   viewBox="111.400 191.400 10.700 6.700"
   version="1.1"
   id="svg21544"
   inkscape:version="1.2.1 (9c6d41e410, 2022-07-14)"
   sodipodi:docname="army_russia.svg"
   xmlns:inkscape="http://www.inkscape.org/namespaces/inkscape"
   xmlns:sodipodi="http://sodipodi.sourceforge.net/DTD/sodipodi-0.dtd"
   xmlns="http://www.w3.org/2000/svg"
   xmlns:svg="http://www.w3.org/2000/svg">
  <sodipodi:namedview
     id="namedview21546"
     pagecolor="#ffffff"
     bordercolor="#000000"
     borderopacity="0.25"
     inkscape:showpageshadow="2"
     inkscape:pageopacity="0.0"
     inkscape:pagecheckerboard="0"
     inkscape:deskcolor="#d1d1d1"
     inkscape:document-units="mm"
     showgrid="false"
     inkscape:zoom="1.1893044"
     inkscape:cx="457.41023"
     inkscape:cy="758.84694"
     inkscape:window-width="1088"
     inkscape:window-height="1086"
     inkscape:window-x="-24"
     inkscape:window-y="0"
     inkscape:window-maximized="0"
     inkscape:current-layer="layer1" />
  <defs
     id="defs21541" />
  <g
     inkscape:label="Warstwa 1"
     inkscape:groupmode="layer"
     id="layer1">
    <g
       id="g15422"
       style="fill:#5b2e6b;fill-opacity:1"
       transform="matrix(0.62737509,0,0,0.62737509,53.456753,107.17225)">
      <path
         fill="#8f4996"
         d="m 104.28965,137.88585 -0.0325,-0.0916 a 0.04181022,0.04114656 70.9 0 0 -0.0518,-0.0259 l -1.87151,0.62317 a 0.04977407,0.04977407 0 0 1 -0.0591,-0.0219 l -0.41479,-0.69419 a 0.03650098,0.03650098 0 0 1 0.0199,-0.0531 l 5.02651,-1.67374 a 0.09357525,0.09357525 0 0 0 0.0637,-0.0856 c 0.006,-0.15662 0.13074,-0.17387 0.25219,-0.21767 q 0.67892,-0.24158 1.06517,-0.37099 a 0.10552102,0.10419372 55.9 0 1 0.10087,0.0199 c 0.18981,0.16325 0.47452,0.78975 0.31192,1.00145 q -0.0405,0.0538 -0.19379,0.10287 -0.60392,0.19511 -1.01539,0.34908 -0.13206,0.0498 -0.20507,-0.0398 a 0.07233831,0.07233831 0 0 0 -0.081,-0.0219 l -2.50397,0.89859 a 0.03782829,0.03849195 69.9 0 0 -0.0226,0.0485 l 0.0411,0.11481 a 0.04114656,0.04114656 0 0 0 0.0544,0.0239 q 0.18981,-0.0776 0.2794,-0.0982 c 0.34908,-0.0783 0.64441,0.58734 0.20772,0.75789 q -0.39022,0.15198 -2.4157,0.85479 a 0.03318271,0.03251906 64.4 0 1 -0.0385,-0.0139 l -0.39753,-0.66764 a 0.02920079,0.02920079 0 0 1 0.0153,-0.0425 l 1.83234,-0.6099 a 0.05176503,0.05176503 0 0 0 0.0325,-0.0664 z m 3.96295,-2.30323 a 0.04048291,0.04048291 0 0 0 -0.052,-0.024 l -0.23917,0.088 a 0.04048291,0.04048291 0 0 0 -0.024,0.052 l 0.19249,0.52319 a 0.04048291,0.04048291 0 0 0 0.052,0.024 l 0.23917,-0.088 a 0.04048291,0.04048291 0 0 0 0.024,-0.052 z m -0.65933,0.25662 a 0.05641061,0.05641061 0 0 0 -0.0724,-0.0335 l -0.17564,0.0646 a 0.05641061,0.05641061 0 0 0 -0.0335,0.0724 l 0.17279,0.46962 a 0.05641061,0.05641061 0 0 0 0.0724,0.0335 l 0.17564,-0.0646 a 0.05641061,0.05641061 0 0 0 0.0335,-0.0724 z"
         id="path11888"
         style="fill:#5b2e6b;fill-opacity:1;stroke:#000000;stroke-width:0.132292;stroke-dasharray:none" />
      <path
         fill="#8f4996"
         d="m 102.55154,139.30209 c -0.57406,-0.24954 -1.20586,-0.35639 -1.81443,-0.20441 -0.813642,0.20374 -1.350539,0.66498 -1.798503,1.36713 q -0.04115,0.0644 -0.08097,0.067 -0.0219,0.002 -0.07433,-0.0106 c -0.126094,-0.0285 -0.536232,0.13937 -0.775147,0.22962 a 0.05375599,0.05242868 63.8 0 1 -0.06438,-0.0226 l -0.128748,-0.21569 a 0.05906523,0.05906523 0 0 1 0.02721,-0.0849 q 0.0584,-0.0246 0.06836,-0.0557 a 0.02521886,0.02521886 0 0 0 -0.0013,-0.0192 L 97.663085,139.782 a 0.03451002,0.03451002 0 0 1 0.01726,-0.0451 l 0.686218,-0.3086 a 0.07366562,0.07300197 73.1 0 0 0.04181,-0.079 q -0.08295,-0.49641 0.313247,-0.63578 0.465222,-0.16259 0.968271,-0.3431 a 0.02720982,0.02720982 0 0 0 0.01528,-0.0365 l -0.856113,-1.90203 a 0.11083026,0.10751198 38.2 0 1 -0.0086,-0.0631 c 0.01791,-0.11946 0.09424,-0.18715 0.22896,-0.1971 q 0.779796,-0.0597 1.505172,-0.11548 a 0.12808527,0.12874892 72.6 0 1 0.12012,0.0624 l 1.88611,3.15037 a 0.0232279,0.0232279 0 0 1 -0.0292,0.0332 z"
         id="path11920"
         style="fill:#5b2e6b;fill-opacity:1;stroke:#000000;stroke-width:0.132292;stroke-dasharray:none" />
      <path
         fill="#8f4996"
         d="m 102.0169,139.35378 a 2.5298501,2.5417958 15.7 0 1 1.74765,3.13155 2.5298501,2.5417958 15.7 0 1 -3.12327,1.76238 2.5298501,2.5417958 15.7 0 1 -1.747657,-3.13154 2.5298501,2.5417958 15.7 0 1 3.123277,-1.76239 z m -0.47611,1.87622 q 0.0438,0.0179 0.0524,0.0173 a 0.10220275,0.10286641 19.8 0 0 0.067,-0.0319 l 0.8674,-0.89327 a 0.02521886,0.02521886 0 0 0 -0.002,-0.0378 q -0.1991,-0.15463 -0.48978,-0.27343 -0.29068,-0.11813 -0.54087,-0.146 a 0.02521886,0.02521886 0 0 0 -0.0279,0.0252 l -0.004,1.24501 a 0.10220275,0.10286641 24.5 0 0 0.0259,0.0697 q 0.005,0.006 0.0518,0.0252 z m -0.44796,-0.009 q 0.0537,-0.0232 0.0551,-0.1095 0.007,-0.59397 -0.0106,-1.16538 a 0.0391556,0.03849195 88 0 0 -0.0392,-0.0378 q -0.21966,0.007 -0.50703,0.12808 -0.28802,0.12211 -0.44531,0.27542 a 0.0391556,0.03849195 46 0 0 -7.5e-4,0.0544 q 0.39886,0.41014 0.83023,0.81828 0.0631,0.0591 0.11747,0.0365 z m 2.00158,-0.14268 q -0.11282,-0.27144 -0.27409,-0.46921 a 0.03782829,0.03782829 0 0 0 -0.0551,-0.003 q -0.588,0.56809 -0.90788,0.92447 -0.0192,0.0212 -0.002,0.0617 0.0173,0.0418 0.0458,0.0431 0.47783,0.0252 1.29479,0.01 a 0.03782829,0.03782829 0 0 0 0.0372,-0.0412 q -0.0259,-0.25351 -0.13871,-0.52561 z m -2.3427,0.48181 q 0.0186,-0.0451 0.0179,-0.0531 a 0.10021179,0.10021179 0 0 0 -0.0312,-0.0657 l -0.874028,-0.84683 a 0.02521886,0.02455521 40.9 0 0 -0.0365,0.003 q -0.151314,0.19379 -0.266788,0.4785 -0.115477,0.28404 -0.142023,0.52827 a 0.02521886,0.02455521 3.4 0 0 0.02456,0.0272 l 1.216479,0.003 a 0.10021179,0.10021179 0 0 0 0.0683,-0.0259 q 0.006,-0.005 0.0232,-0.0484 z m 2.32743,0.97624 q 0.11083,-0.27144 0.13539,-0.52363 a 0.03782829,0.03782829 0 0 0 -0.0372,-0.0412 q -0.81297,-0.0106 -1.28815,0.0166 -0.0285,0.002 -0.0451,0.0425 -0.0173,0.0418 0.002,0.0624 0.31988,0.35306 0.90788,0.91518 a 0.03782829,0.03782829 0 0 0 0.0551,-0.004 q 0.15928,-0.19711 0.27011,-0.46788 z m -3.527982,-0.005 q 0.108841,0.26612 0.265461,0.45991 a 0.03716464,0.03716464 0 0 0 0.05442,0.003 q 0.577381,-0.55282 0.891951,-0.89925 0.0186,-0.0206 0.002,-0.0604 -0.0166,-0.0411 -0.0445,-0.0425 -0.46721,-0.0265 -1.26625,-0.0159 a 0.03716464,0.03716464 0 0 0 -0.0365,0.0405 q 0.02456,0.24754 0.133393,0.51433 z m 1.014732,1.03862 q 0.26944,0.11216 0.52096,0.13804 a 0.03716464,0.03782829 3.7 0 0 0.0418,-0.0365 q 0.0146,-0.81165 -0.01,-1.2855 -0.001,-0.0285 -0.0418,-0.0451 -0.0411,-0.0173 -0.0624,0.001 -0.35373,0.31789 -0.91783,0.90058 a 0.03716464,0.03782829 41.4 0 0 0.003,0.0551 q 0.19577,0.15994 0.46588,0.27209 z m 1.48724,0.009 q 0.27343,-0.11747 0.47054,-0.28206 a 0.03849195,0.03782829 48 0 0 0.003,-0.0564 q -0.5807,-0.58667 -0.94372,-0.90522 -0.0213,-0.0192 -0.0624,-0.001 -0.0418,0.0179 -0.0431,0.0465 -0.0199,0.48314 0.005,1.30806 a 0.03849195,0.03782829 85.6 0 0 0.0425,0.0365 q 0.25551,-0.0292 0.52893,-0.146 z"
         id="path11930"
         style="fill:#5b2e6b;fill-opacity:1;stroke:#000000;stroke-width:0.132292;stroke-dasharray:none" />
      <path
         fill="#8f4996"
         d="m 98.580233,141.5605 q -0.02323,0.44996 0.05906,0.88333 a 0.03716464,0.03650098 78.9 0 1 -0.02854,0.0425 l -3.756281,0.809 a 0.05972888,0.05906523 86.6 0 0 -0.04646,0.0524 c -0.0511,0.55548 -0.787758,0.69684 -0.9842,0.13605 q -0.02522,-0.0717 -0.02389,-0.27409 a 0.05043772,0.05043772 0 0 0 -0.0365,-0.0478 l -0.55017,-0.17122 a 0.06105619,0.06105619 0 0 1 -0.04247,-0.0657 l 0.01593,-0.12942 a 0.06039254,0.06039254 0 0 1 0.06769,-0.0524 l 0.783112,0.0976 a 0.04579214,0.0464558 9.4 0 0 0.05044,-0.0372 q 0.05442,-0.27276 0.330499,-0.23693 a 0.06304715,0.0623835 70.8 0 1 0.0365,0.0179 l 0.04778,0.0471 a 0.06702908,0.06702908 0 0 0 0.06504,0.0173 l 3.978607,-1.1156 a 0.02654617,0.02654617 0 0 1 0.03385,0.0272 z"
         id="path12028"
         style="fill:#5b2e6b;fill-opacity:1;stroke:#000000;stroke-width:0.132292;stroke-dasharray:none" />
    </g>
  </g>
</svg>
